<?xml version="1.0" standalone="no"?>
<!DOCTYPE svg PUBLIC "-//W3C//DTD SVG 20010904//EN"
 "http://www.w3.org/TR/2001/REC-SVG-20010904/DTD/svg10.dtd">
<svg version="1.0" xmlns="http://www.w3.org/2000/svg"
 width="512.000000pt" height="512.000000pt" viewBox="0 0 512.000000 512.000000"
 preserveAspectRatio="xMidYMid meet">
<metadata>
Created by potrace 1.11, written by Peter Selinger 2001-2013
</metadata>
<g transform="translate(0.000000,512.000000) scale(0.100000,-0.100000)"
fill="#000000" stroke="none">
<path d="M1785 4570 c-18 -4 34 -8 125 -8 91 0 143 4 125 8 -16 4 -73 8 -125
8 -52 0 -108 -4 -125 -8z"/>
<path d="M2335 4343 c10 -26 63 -175 305 -856 118 -333 218 -603 222 -601 4 3
8 -2 8 -12 0 -13 131 -396 320 -929 46 -130 142 -411 240 -700 50 -148 99
-292 110 -320 17 -45 19 -47 19 -20 1 17 -5 55 -13 85 -26 98 -474 1394 -612
1770 l-68 185 -5 282 c-3 155 -9 285 -13 289 -5 4 -8 -15 -9 -42 l-1 -49 -13
35 -13 35 -2 -40 c-1 -32 -3 -36 -10 -20 -7 17 -9 14 -10 -15 l-2 -35 -13 35
c-9 25 -14 29 -15 15 -1 -13 -8 -4 -20 25 -12 28 -19 38 -20 25 -1 -13 -8 -3
-19 24 -11 27 -20 39 -23 30 -3 -8 -16 19 -28 58 -13 40 -27 68 -30 63 -3 -5
-48 108 -99 253 -86 244 -171 447 -186 447 -4 0 -4 -8 0 -17z"/>
<path d="M3650 2537 c0 -1459 3 -1828 13 -1825 6 3 13 18 15 34 2 16 13 39 24
51 15 16 18 29 13 51 -4 20 -1 41 10 62 11 21 14 42 10 62 -4 16 -2 50 5 73 9
31 9 52 2 73 -6 18 -7 47 -1 75 11 62 11 -10 10 1507 0 870 -4 1373 -11 1425
-13 102 -35 174 -66 211 l-23 29 -1 -1828z"/>
<path d="M1556 4234 c3 -27 23 -101 44 -164 50 -151 446 -1263 566 -1590 l94
-255 0 -802 0 -803 -62 0 c-150 0 -618 -46 -618 -61 0 -16 77 -70 125 -86 77
-27 274 -24 382 6 196 55 254 146 270 427 4 72 9 110 14 99 4 -11 8 33 9 100
1 77 4 113 10 100 6 -14 9 -1 9 45 1 46 4 61 11 50 7 -11 10 -3 10 30 l1 45
14 -30 13 -30 2 35 c1 29 3 32 10 15 7 -17 9 -14 10 15 l2 35 12 -35 c11 -29
14 -31 18 -15 3 15 8 9 18 -24 11 -34 15 -39 21 -25 5 15 9 9 20 -25 9 -30 15
-38 19 -27 4 11 14 -8 28 -54 13 -39 27 -68 31 -65 5 2 23 -35 40 -84 32 -89
106 -251 115 -251 3 0 -18 64 -46 143 -28 78 -75 212 -105 297 -30 85 -68 191
-84 235 -15 44 -52 150 -83 235 -30 85 -73 207 -96 270 -23 63 -58 161 -78
217 -20 56 -40 100 -44 97 -4 -3 -8 3 -8 13 0 10 -23 82 -51 158 -54 148 -242
675 -289 810 -16 44 -47 132 -70 195 -23 63 -54 151 -70 195 -15 44 -56 159
-90 255 -34 96 -74 213 -90 259 -35 101 -42 110 -34 45z"/>
<path d="M3105 595 c50 -14 275 -26 275 -14 0 7 -235 30 -290 28 -34 -1 -33
-1 15 -14z"/>
</g>
</svg>
